<svg width="64" height="64" viewBox="0 0 64 64" fill="none" xmlns="http://www.w3.org/2000/svg">
<path fill-rule="evenodd" clip-rule="evenodd" d="M32 8V8C45.256 8 56 18.744 56 32V32C56 45.256 45.256 56 32 56V56C18.744 56 8 45.256 8 32V32C8 18.744 18.744 8 32 8Z" stroke="#F2994A" stroke-width="4" stroke-linecap="round" stroke-linejoin="round"/>
<path d="M32.0003 33.3333V20" stroke="#F2994A" stroke-width="4" stroke-linecap="round" stroke-linejoin="round"/>
<path d="M31.9977 42.6667C31.6297 42.6667 31.331 42.9653 31.3337 43.3333C31.3337 43.7013 31.6323 44 32.0003 44C32.3683 44 32.667 43.7013 32.667 43.3333C32.667 42.9653 32.3683 42.6667 31.9977 42.6667" stroke="#F2994A" stroke-width="4" stroke-linecap="round" stroke-linejoin="round"/>
</svg>
