<svg width="24" height="24" viewBox="0 0 24 24" fill="none" xmlns="http://www.w3.org/2000/svg">
<path d="M13.1162 15.2036H9.34277V18.6797H8.0918V15.2036H6V14.127H8.0918V12.5991H6V11.5327H8.0918V3.75H13.1777C14.75 3.75 15.9771 4.1499 16.8589 4.94971C17.7476 5.74268 18.1919 6.82275 18.1919 8.18994C18.1919 9.58447 17.7612 10.668 16.8999 11.4404C16.0386 12.2061 14.8081 12.5923 13.2085 12.5991H9.34277V14.127H13.1162V15.2036ZM9.34277 11.5327H13.1777C14.3672 11.5327 15.29 11.2456 15.9463 10.6714C16.6025 10.0903 16.9307 9.27002 16.9307 8.21045C16.9307 7.18506 16.6094 6.37158 15.9668 5.77002C15.3311 5.16846 14.4526 4.854 13.3315 4.82666H9.34277V11.5327Z" fill="#10203B"/>
</svg>
