<svg width="24" height="24" viewBox="0 0 24 24" fill="none" xmlns="http://www.w3.org/2000/svg">
<path fill-rule="evenodd" clip-rule="evenodd" d="M3.11775 12.467C2.96075 12.176 2.96075 11.823 3.11775 11.532C5.00975 8.033 8.50475 5 11.9998 5C15.4948 5 18.9898 8.033 20.8818 11.533C21.0388 11.824 21.0388 12.177 20.8818 12.468C18.9898 15.967 15.4948 19 11.9998 19C8.50475 19 5.00975 15.967 3.11775 12.467Z" stroke="#9CA4B3" stroke-width="1.5" stroke-linecap="round" stroke-linejoin="round"/>
<path d="M14.1208 9.87868C15.2924 11.0502 15.2924 12.9497 14.1208 14.1213C12.9493 15.2929 11.0498 15.2929 9.87819 14.1213C8.70662 12.9497 8.70662 11.0502 9.87819 9.87868C11.0498 8.70711 12.9493 8.70711 14.1208 9.87868" stroke="#9CA4B3" stroke-width="1.5" stroke-linecap="round" stroke-linejoin="round"/>
</svg>
